<svg width="1183" height="1138" viewBox="0 0 1183 1138" fill="none" xmlns="http://www.w3.org/2000/svg">
<path d="M249 411C131 403 1 621 1 621H1183V1C1183 1 1067.49 321.759 893 347C791.569 361.673 735.981 247.859 639 281C543.773 313.542 575.832 455.598 479 483C388.438 508.628 367 419 249 411Z" fill="#4A4E69" stroke="#4A4E69"/>
<path d="M249 795.774C131 802.432 1 621 1 621H1183V1137C1183 1137 1067.49 870.046 893 849.039C791.569 836.827 735.981 931.55 639 903.968C543.773 876.884 575.832 758.657 479 735.852C388.438 714.523 367 789.116 249 795.774Z" fill="#4A4E69" stroke="#4A4E69"/>
</svg>
